<svg xmlns="http://www.w3.org/2000/svg" xmlns:v="https://svgstorm.com"
viewBox = "0 0 432 216"
width="432"
height="216">
<g fill="#000000" fill-opacity="0.00" stroke="None"><path d="
M 0.00 216.00 
L 432.00 216.00
L 432.00 0.00
L 0.00 0.00
L 0.00 216.00
M 196.00 188.00 
C 194.72 187.17 192.76 185.17 192.00 184.00
C 185.71 177.71 181.25 171.63 177.70 163.31 C 174.14 154.98 164.89 154.09 159.08 146.92 C 153.28 139.74 149.85 132.19 148.01 122.99 C 146.17 113.79 147.48 101.87 156.00 97.00
C 158.27 98.72 161.34 97.73 164.00 98.00
C 159.43 68.54 172.55 33.99 195.75 19.61 C 218.96 5.22 248.63 4.05 273.23 20.77 C 297.82 37.49 306.58 70.64 303.00 98.00
C 330.87 96.35 318.14 135.26 309.29 146.30 C 300.43 157.35 294.74 152.84 289.69 163.69 C 284.65 174.55 279.82 178.30 272.75 186.75 C 265.69 195.20 258.34 196.82 249.31 202.31 C 240.27 207.79 229.22 207.85 220.77 203.23 C 212.32 198.61 202.56 196.04 196.00 188.00 Z"/>
</g>
<g fill="#000000" fill-opacity="0.99" stroke="None"><path d="
M 192.00 184.00 
C 193.26 185.26 194.78 186.78 196.00 188.00
C 202.56 196.04 212.32 198.61 220.77 203.23 C 229.22 207.85 240.27 207.79 249.31 202.31 C 258.34 196.82 265.69 195.20 272.75 186.75 C 279.82 178.30 284.65 174.55 289.69 163.69 C 294.74 152.84 300.43 157.35 309.29 146.30 C 318.14 135.26 330.87 96.35 303.00 98.00
C 306.58 70.64 297.82 37.49 273.23 20.77 C 248.63 4.05 218.96 5.22 195.75 19.61 C 172.55 33.99 159.43 68.54 164.00 98.00
C 161.34 97.73 158.27 98.72 156.00 97.00
C 147.48 101.87 146.17 113.79 148.01 122.99 C 149.85 132.19 153.28 139.74 159.08 146.92 C 164.89 154.09 174.14 154.98 177.70 163.31 C 181.25 171.63 185.71 177.71 192.00 184.00 Z"/>
</g>
<g fill="#91834F" fill-opacity="1.00" stroke="None"><path d="
M 231.00 15.00 
C 232.66 14.97 234.34 14.97 236.00 15.00
C 234.26 14.77 232.79 14.77 231.00 15.00 Z"/>
</g>
<g fill="#F7FDFC" fill-opacity="1.00" stroke="None"><path d="
M 216.00 67.00 
C 215.91 68.59 215.17 70.03 215.00 71.00
C 214.99 71.69 215.30 73.39 215.00 74.00
C 213.65 76.74 206.94 74.32 204.00 75.00 C 201.06 75.68 195.20 74.49 192.00 75.00
C 205.55 91.23 219.44 107.65 234.00 123.00
C 247.26 106.73 262.06 91.53 275.00 75.00
C 270.04 72.56 255.29 78.70 252.00 74.00
C 248.41 68.87 253.58 62.70 250.78 56.22 C 247.98 49.74 250.88 48.53 248.00 40.00 C 245.12 31.47 247.84 15.22 236.00 15.00
C 234.34 14.97 232.66 14.97 231.00 15.00
C 229.00 15.00 227.00 15.00 225.00 15.00
C 219.57 31.75 217.04 49.10 216.00 67.00 Z"/>
</g>
<g fill="#91834F" fill-opacity="1.00" stroke="None"><path d="
M 217.00 18.00 
C 219.38 18.77 218.84 19.43 219.00 22.00
C 219.46 18.16 220.98 17.89 217.00 18.00 Z"/>
</g>
<g fill="#91834F" fill-opacity="1.00" stroke="None"><path d="
M 248.00 21.00 
C 248.59 18.15 247.98 18.50 251.00 18.00
C 246.72 17.56 247.83 16.95 248.00 21.00 Z"/>
</g>
<g fill="#C3AB6B" fill-opacity="1.00" stroke="None"><path d="
M 212.00 19.00 
C 210.75 19.55 209.50 20.46 208.00 21.00
C 203.28 22.70 199.10 24.95 195.00 28.00
C 191.15 31.36 186.31 36.20 183.00 40.00
C 176.47 48.79 172.25 59.20 171.00 70.00
C 170.80 71.72 170.37 72.78 170.00 74.00
C 170.02 74.50 170.00 75.50 170.00 76.00
C 170.00 85.67 170.00 95.33 170.00 105.00
C 170.00 106.33 170.00 107.67 170.00 109.00
C 171.03 116.56 168.05 120.03 171.93 128.07 C 175.80 136.12 175.02 135.69 180.25 144.75 C 185.48 153.80 195.96 164.79 205.08 169.92 C 214.20 175.05 214.86 174.98 223.01 176.99 C 231.16 179.00 239.80 178.42 247.00 177.00 C 254.20 175.59 258.41 172.24 264.23 169.23 C 270.05 166.22 272.98 161.96 277.75 157.75 C 282.52 153.54 284.25 147.78 287.92 142.92 C 291.59 138.07 293.57 131.24 295.93 125.93 C 298.28 120.61 299.93 110.78 300.00 110.00
C 299.34 111.61 299.25 113.59 298.00 115.00
C 297.41 115.67 297.17 117.00 296.00 117.00
C 296.52 114.81 294.86 111.38 297.00 110.00
C 297.00 109.00 297.00 108.00 297.00 107.00
C 297.00 103.25 297.71 99.01 298.00 96.00
C 298.00 91.67 298.00 87.33 298.00 83.00
C 297.80 80.90 297.00 77.77 297.00 75.00
C 297.00 75.00 296.94 74.49 297.00 74.00
C 295.78 72.80 296.17 71.75 296.00 70.00
C 295.01 59.68 291.22 49.36 285.00 41.00
C 283.84 39.67 282.16 38.35 281.00 37.00
C 276.23 31.42 271.41 27.03 265.00 24.00
C 263.21 23.15 261.52 21.81 260.00 21.00
C 256.91 19.66 254.40 18.35 251.00 18.00
C 247.98 18.50 248.59 18.15 248.00 21.00
C 248.17 25.03 249.38 28.22 250.00 32.00
C 250.38 33.22 251.24 34.15 251.00 36.00
C 251.00 36.00 251.06 36.51 251.00 37.00
C 252.12 38.10 252.05 39.31 252.00 41.00
C 251.98 41.50 252.02 42.50 252.00 43.00
C 252.38 44.24 252.97 45.21 253.00 47.00
C 253.02 48.00 253.00 49.00 253.00 50.00
C 253.24 51.34 254.01 53.04 254.00 55.00
C 254.00 56.00 254.03 57.00 254.00 58.00
C 254.44 59.99 254.79 62.47 255.00 65.00
C 255.00 67.00 255.00 69.00 255.00 71.00
C 262.63 74.00 275.93 67.00 283.00 71.00
C 284.90 72.08 280.71 74.23 280.00 75.00
C 279.32 75.90 278.71 77.06 278.00 78.00
C 276.53 79.95 274.56 81.33 273.00 83.00
C 272.63 83.61 272.39 84.36 272.00 85.00
C 270.46 87.53 267.88 88.99 266.00 91.00
C 265.63 91.61 265.39 92.36 265.00 93.00
C 263.69 95.15 261.56 96.30 260.00 98.00
C 259.32 98.90 258.71 100.06 258.00 101.00
C 256.53 102.94 254.54 104.33 253.00 106.00
C 252.32 106.90 251.71 108.06 251.00 109.00
C 249.52 110.96 247.60 112.34 246.00 114.00
C 245.01 115.21 244.03 116.74 243.00 118.00
C 241.77 119.50 240.26 120.69 239.00 122.00
C 238.02 123.19 237.09 124.83 236.00 126.00
C 235.24 126.82 234.52 128.05 234.00 129.00
C 232.80 128.33 231.42 127.36 231.00 126.00
C 230.31 125.14 229.70 123.93 229.00 123.00
C 227.41 121.26 225.44 119.90 224.00 118.00
C 223.32 117.10 222.71 115.94 222.00 115.00
C 220.41 113.26 218.44 111.90 217.00 110.00
C 216.32 109.10 215.71 107.94 215.00 107.00
C 213.38 105.23 211.29 104.12 210.00 102.00
C 209.63 101.39 209.39 100.64 209.00 100.00
C 207.73 98.64 206.19 97.45 205.00 96.00
C 204.01 94.79 203.03 93.26 202.00 92.00
C 200.02 89.94 197.52 88.50 196.00 86.00
C 195.63 85.39 195.39 84.64 195.00 84.00
C 193.06 81.92 190.52 80.50 189.00 78.00
C 188.63 77.39 188.39 76.64 188.00 76.00
C 187.08 75.01 182.01 72.12 184.00 71.00
C 193.33 71.00 202.67 71.00 212.00 71.00
C 212.13 69.01 211.83 66.99 212.00 65.00
C 212.18 62.81 212.68 60.60 213.00 59.00
C 212.98 58.00 213.00 57.00 213.00 56.00
C 212.99 53.77 213.42 52.62 214.00 51.00
C 213.97 50.50 214.03 49.50 214.00 49.00
C 213.89 46.76 214.42 45.61 215.00 44.00
C 214.97 43.50 215.02 42.50 215.00 42.00
C 214.94 40.08 215.62 39.28 216.00 38.00
C 216.83 32.61 218.34 27.46 219.00 22.00
C 218.84 19.43 219.38 18.77 217.00 18.00
C 214.93 18.06 213.84 18.41 212.00 19.00 Z"/>
</g>
<g fill="#91834F" fill-opacity="1.00" stroke="None"><path d="
M 208.00 21.00 
C 209.50 20.46 210.75 19.55 212.00 19.00
C 210.34 19.53 209.36 20.32 208.00 21.00 Z"/>
</g>
<g fill="#91834F" fill-opacity="1.00" stroke="None"><path d="
M 265.00 24.00 
C 263.34 23.02 261.98 21.85 260.00 21.00
C 261.52 21.81 263.21 23.15 265.00 24.00 Z"/>
</g>
<g fill="#91834F" fill-opacity="1.00" stroke="None"><path d="
M 183.00 40.00 
C 186.31 36.20 191.15 31.36 195.00 28.00
C 190.72 31.18 186.22 35.67 183.00 40.00 Z"/>
</g>
<g fill="#91834F" fill-opacity="1.00" stroke="None"><path d="
M 251.00 36.00 
C 251.24 34.15 250.38 33.22 250.00 32.00
C 250.29 33.76 249.73 34.76 251.00 36.00 Z"/>
</g>
<g fill="#91834F" fill-opacity="1.00" stroke="None"><path d="
M 252.00 41.00 
C 252.05 39.31 252.12 38.10 251.00 37.00
C 250.76 38.85 251.63 39.78 252.00 41.00 Z"/>
</g>
<g fill="#91834F" fill-opacity="1.00" stroke="None"><path d="
M 285.00 41.00 
C 283.82 39.41 282.39 38.39 281.00 37.00
C 282.16 38.35 283.84 39.67 285.00 41.00 Z"/>
</g>
<g fill="#91834F" fill-opacity="1.00" stroke="None"><path d="
M 215.00 42.00 
C 215.36 40.82 215.75 39.64 216.00 38.00
C 215.62 39.28 214.94 40.08 215.00 42.00 Z"/>
</g>
<g fill="#91834F" fill-opacity="1.00" stroke="None"><path d="
M 253.00 47.00 
C 252.97 45.21 252.38 44.24 252.00 43.00
C 251.95 44.68 252.82 45.96 253.00 47.00 Z"/>
</g>
<g fill="#91834F" fill-opacity="1.00" stroke="None"><path d="
M 214.00 49.00 
C 214.58 47.39 215.11 46.24 215.00 44.00
C 214.42 45.61 213.89 46.76 214.00 49.00 Z"/>
</g>
<g fill="#91834F" fill-opacity="1.00" stroke="None"><path d="
M 254.00 55.00 
C 254.01 53.04 253.24 51.34 253.00 50.00
C 252.99 51.96 253.76 53.66 254.00 55.00 Z"/>
</g>
<g fill="#91834F" fill-opacity="1.00" stroke="None"><path d="
M 213.00 56.00 
C 213.25 54.63 214.11 53.07 214.00 51.00
C 213.42 52.62 212.99 53.77 213.00 56.00 Z"/>
</g>
<g fill="#91834F" fill-opacity="1.00" stroke="None"><path d="
M 255.00 65.00 
C 254.79 62.47 254.44 59.99 254.00 58.00
C 253.93 60.61 254.67 63.04 255.00 65.00 Z"/>
</g>
<g fill="#91834F" fill-opacity="1.00" stroke="None"><path d="
M 212.00 65.00 
C 212.30 63.35 213.04 61.33 213.00 59.00
C 212.68 60.60 212.18 62.81 212.00 65.00 Z"/>
</g>
<g fill="#91834F" fill-opacity="1.00" stroke="None"><path d="
M 215.00 71.00 
C 215.17 70.03 215.91 68.59 216.00 67.00
C 215.82 68.02 215.03 69.33 215.00 71.00 Z"/>
</g>
<g fill="#91834F" fill-opacity="1.00" stroke="None"><path d="
M 170.00 74.00 
C 170.37 72.78 170.80 71.72 171.00 70.00
C 170.70 71.21 169.94 72.14 170.00 74.00 Z"/>
</g>
<g fill="#91834F" fill-opacity="1.00" stroke="None"><path d="
M 297.00 74.00 
C 297.23 72.20 296.25 71.14 296.00 70.00
C 296.17 71.75 295.78 72.80 297.00 74.00 Z"/>
</g>
<g fill="#91834F" fill-opacity="1.00" stroke="None"><path d="
M 188.00 76.00 
C 186.90 74.19 185.09 72.87 184.00 71.00
C 182.01 72.12 187.08 75.01 188.00 76.00 Z"/>
</g>
<g fill="#91834F" fill-opacity="1.00" stroke="None"><path d="
M 280.00 75.00 
C 280.71 74.23 284.90 72.08 283.00 71.00
C 282.22 72.41 280.99 73.68 280.00 75.00 Z"/>
</g>
<g fill="#91834F" fill-opacity="1.00" stroke="None"><path d="
M 192.00 75.00 
C 195.20 74.49 201.06 75.68 204.00 75.00 C 206.94 74.32 213.65 76.74 215.00 74.00
C 207.49 74.64 198.76 72.70 192.00 75.00 Z"/>
</g>
<g fill="#91834F" fill-opacity="1.00" stroke="None"><path d="
M 275.00 75.00 
C 268.33 72.67 259.50 74.66 252.00 74.00
C 255.29 78.70 270.04 72.56 275.00 75.00 Z"/>
</g>
<g fill="#91834F" fill-opacity="1.00" stroke="None"><path d="
M 298.00 83.00 
C 298.00 80.27 298.52 77.05 297.00 75.00
C 297.00 77.77 297.80 80.90 298.00 83.00 Z"/>
</g>
<g fill="#91834F" fill-opacity="1.00" stroke="None"><path d="
M 170.00 105.00 
C 170.00 95.33 170.00 85.67 170.00 76.00
C 166.85 83.42 168.95 97.30 170.00 105.00 Z"/>
</g>
<g fill="#91834F" fill-opacity="1.00" stroke="None"><path d="
M 195.00 84.00 
C 193.48 81.50 190.94 80.08 189.00 78.00
C 190.52 80.50 193.06 81.92 195.00 84.00 Z"/>
</g>
<g fill="#91834F" fill-opacity="1.00" stroke="None"><path d="
M 273.00 83.00 
C 274.56 81.33 276.53 79.95 278.00 78.00
C 276.44 79.70 274.31 80.85 273.00 83.00 Z"/>
</g>
<g fill="#91834F" fill-opacity="1.00" stroke="None"><path d="
M 266.00 91.00 
C 267.88 88.99 270.46 87.53 272.00 85.00
C 270.12 87.01 267.54 88.47 266.00 91.00 Z"/>
</g>
<g fill="#91834F" fill-opacity="1.00" stroke="None"><path d="
M 202.00 92.00 
C 200.22 89.84 197.90 88.04 196.00 86.00
C 197.52 88.50 200.02 89.94 202.00 92.00 Z"/>
</g>
<g fill="#91834F" fill-opacity="1.00" stroke="None"><path d="
M 260.00 98.00 
C 261.56 96.30 263.69 95.15 265.00 93.00
C 263.44 94.67 261.47 96.05 260.00 98.00 Z"/>
</g>
<g fill="#91834F" fill-opacity="1.00" stroke="None"><path d="
M 209.00 100.00 
C 207.93 98.24 206.38 97.43 205.00 96.00
C 206.19 97.45 207.73 98.64 209.00 100.00 Z"/>
</g>
<g fill="#91834F" fill-opacity="1.00" stroke="None"><path d="
M 297.00 107.00 
C 297.71 103.78 298.00 99.91 298.00 96.00
C 297.71 99.01 297.00 103.25 297.00 107.00 Z"/>
</g>
<g fill="#91834F" fill-opacity="1.00" stroke="None"><path d="
M 253.00 106.00 
C 254.54 104.33 256.53 102.94 258.00 101.00
C 256.47 102.67 254.47 104.06 253.00 106.00 Z"/>
</g>
<g fill="#91834F" fill-opacity="1.00" stroke="None"><path d="
M 215.00 107.00 
C 213.55 105.09 211.62 103.73 210.00 102.00
C 211.29 104.12 213.38 105.23 215.00 107.00 Z"/>
</g>
<g fill="#91834F" fill-opacity="1.00" stroke="None"><path d="
M 300.00 110.00 
C 299.93 110.78 298.28 120.61 295.93 125.93 C 293.57 131.24 291.59 138.07 287.92 142.92 C 284.25 147.78 282.52 153.54 277.75 157.75 C 272.98 161.96 270.05 166.22 264.23 169.23 C 258.41 172.24 254.20 175.59 247.00 177.00 C 239.80 178.42 231.16 179.00 223.01 176.99 C 214.86 174.98 214.20 175.05 205.08 169.92 C 195.96 164.79 185.48 153.80 180.25 144.75 C 175.02 135.69 175.80 136.12 171.93 128.07 C 168.05 120.03 171.03 116.56 170.00 109.00
C 169.61 110.87 170.87 113.86 169.00 115.00
C 165.93 93.63 149.40 110.81 154.22 121.78 C 159.04 132.75 159.78 144.87 171.33 148.67 C 182.88 152.47 183.97 163.06 191.25 172.75 C 198.52 182.45 205.22 186.63 214.77 193.23 C 224.32 199.83 237.84 201.72 247.77 195.77 C 257.70 189.82 265.45 185.76 272.75 176.75 C 280.04 167.73 284.89 159.54 289.00 149.00
C 298.02 150.21 303.04 144.43 307.08 137.08 C 311.11 129.72 312.45 123.01 313.00 114.00 C 313.55 104.99 304.19 99.81 300.00 110.00 Z"/>
</g>
<g fill="#91834F" fill-opacity="1.00" stroke="None"><path d="
M 246.00 114.00 
C 247.60 112.34 249.52 110.96 251.00 109.00
C 249.49 110.64 247.51 112.16 246.00 114.00 Z"/>
</g>
<g fill="#91834F" fill-opacity="1.00" stroke="None"><path d="
M 222.00 115.00 
C 220.56 113.10 218.59 111.74 217.00 110.00
C 218.44 111.90 220.41 113.26 222.00 115.00 Z"/>
</g>
<g fill="#91834F" fill-opacity="1.00" stroke="None"><path d="
M 298.00 115.00 
C 296.34 114.23 296.99 111.57 297.00 110.00
C 294.86 111.38 296.52 114.81 296.00 117.00
C 297.17 117.00 297.41 115.67 298.00 115.00 Z"/>
</g>
<g fill="#000000" fill-opacity="1.00" stroke="None"><path d="
M 188.00 112.00 
C 189.10 111.83 193.84 113.61 195.00 114.00
C 196.26 114.19 196.92 114.32 198.00 115.00
C 198.72 114.86 199.95 116.40 200.00 117.00
C 198.67 117.00 197.33 117.00 196.00 117.00
C 192.74 118.77 188.25 119.15 185.00 121.00
C 183.24 122.18 182.38 125.47 180.00 126.00
C 179.72 127.93 182.98 133.44 184.00 135.00
C 185.33 136.73 189.28 140.85 191.00 142.00
C 195.84 144.76 203.23 146.73 209.00 146.00
C 209.90 145.89 212.62 145.27 214.00 145.00
C 215.92 144.37 219.85 143.48 221.00 142.00
C 221.73 140.62 221.70 135.32 222.00 134.00
C 223.05 129.32 215.29 123.99 209.75 119.25 C 204.21 114.51 195.93 108.80 188.00 112.00 Z"/>
</g>
<g fill="#000000" fill-opacity="1.00" stroke="None"><path d="
M 245.00 134.00 
C 245.68 135.81 245.19 139.10 246.00 141.00
C 247.40 143.41 250.48 144.17 253.00 145.00
C 254.39 145.27 257.13 145.89 258.00 146.00
C 263.84 146.15 273.59 144.43 277.30 140.30 C 281.02 136.18 287.91 131.92 287.00 126.00
C 285.06 125.44 284.24 123.16 283.00 122.00
C 282.42 121.65 281.63 121.32 281.00 121.00
C 279.45 120.21 277.33 118.50 276.00 118.00
C 274.37 117.53 272.61 117.44 271.00 117.00
C 269.76 116.66 268.26 117.26 267.00 117.00
C 267.41 116.17 267.97 115.13 269.00 115.00
C 269.12 114.45 271.60 114.06 272.00 114.00
C 273.22 113.59 277.95 111.88 279.00 112.00
C 273.21 109.70 266.95 111.95 262.25 115.25 C 257.54 118.54 255.47 121.35 250.75 124.75 C 246.03 128.15 244.64 133.02 245.00 134.00 Z"/>
</g>
<g fill="#91834F" fill-opacity="1.00" stroke="None"><path d="
M 195.00 114.00 
C 193.84 113.61 189.10 111.83 188.00 112.00
C 186.84 112.77 184.49 113.08 185.00 115.00
C 187.85 113.74 191.79 113.51 195.00 114.00 Z"/>
</g>
<g fill="#91834F" fill-opacity="1.00" stroke="None"><path d="
M 272.00 114.00 
C 275.33 114.00 278.67 114.00 282.00 114.00
C 281.53 112.93 280.08 112.43 279.00 112.00
C 277.95 111.88 273.22 113.59 272.00 114.00 Z"/>
</g>
<g fill="#91834F" fill-opacity="1.00" stroke="None"><path d="
M 196.00 117.00 
C 197.33 117.00 198.67 117.00 200.00 117.00
C 199.95 116.40 198.72 114.86 198.00 115.00
C 197.79 115.04 196.29 116.84 196.00 117.00 Z"/>
</g>
<g fill="#91834F" fill-opacity="1.00" stroke="None"><path d="
M 271.00 117.00 
C 270.56 116.76 269.51 115.10 269.00 115.00
C 267.97 115.13 267.41 116.17 267.00 117.00
C 268.26 117.26 269.76 116.66 271.00 117.00 Z"/>
</g>
<g fill="#91834F" fill-opacity="1.00" stroke="None"><path d="
M 229.00 123.00 
C 227.56 121.10 225.59 119.74 224.00 118.00
C 225.44 119.90 227.41 121.26 229.00 123.00 Z"/>
</g>
<g fill="#91834F" fill-opacity="1.00" stroke="None"><path d="
M 239.00 122.00 
C 240.26 120.69 241.77 119.50 243.00 118.00
C 241.74 119.31 240.23 120.50 239.00 122.00 Z"/>
</g>
<g fill="#91834F" fill-opacity="1.00" stroke="None"><path d="
M 281.00 121.00 
C 279.22 119.40 278.45 118.70 276.00 118.00
C 277.33 118.50 279.45 120.21 281.00 121.00 Z"/>
</g>
<g fill="#F7FDFC" fill-opacity="1.00" stroke="None"><path d="
M 188.00 134.00 
C 188.97 135.11 190.94 137.08 192.00 138.00
C 195.55 140.64 198.50 141.91 203.00 142.00
C 204.33 142.03 205.67 141.99 207.00 142.00
C 222.63 144.38 218.63 129.99 209.75 124.25 C 200.86 118.52 191.62 118.79 184.00 127.00
C 185.15 129.48 186.35 131.78 188.00 134.00 Z"/>
</g>
<g fill="#F7FDFC" fill-opacity="1.00" stroke="None"><path d="
M 259.00 142.00 
C 260.66 142.03 262.34 142.06 264.00 142.00
C 267.86 141.87 270.79 141.14 274.00 139.00
C 275.73 137.65 278.58 134.63 280.00 133.00
C 281.26 130.81 283.48 128.83 283.00 126.00
C 274.94 119.98 265.82 117.68 257.25 124.25 C 248.68 130.82 244.13 141.72 259.00 142.00 Z"/>
</g>
<g fill="#91834F" fill-opacity="1.00" stroke="None"><path d="
M 180.00 126.00 
C 182.38 125.47 183.24 122.18 185.00 121.00
C 183.64 121.78 180.26 124.23 180.00 126.00 Z"/>
</g>
<g fill="#91834F" fill-opacity="1.00" stroke="None"><path d="
M 287.00 126.00 
C 286.76 124.42 284.26 122.77 283.00 122.00
C 284.24 123.16 285.06 125.44 287.00 126.00 Z"/>
</g>
<g fill="#91834F" fill-opacity="1.00" stroke="None"><path d="
M 236.00 126.00 
C 233.89 127.64 233.08 127.93 231.00 126.00
C 231.42 127.36 232.80 128.33 234.00 129.00
C 234.52 128.05 235.24 126.82 236.00 126.00 Z"/>
</g>
<g fill="#91834F" fill-opacity="1.00" stroke="None"><path d="
M 274.00 139.00 
C 276.34 137.44 278.30 135.29 280.00 133.00
C 278.58 134.63 275.73 137.65 274.00 139.00 Z"/>
</g>
<g fill="#91834F" fill-opacity="1.00" stroke="None"><path d="
M 192.00 138.00 
C 190.94 137.08 188.97 135.11 188.00 134.00
C 189.20 135.61 190.34 136.77 192.00 138.00 Z"/>
</g>
<g fill="#91834F" fill-opacity="1.00" stroke="None"><path d="
M 221.00 142.00 
C 222.66 139.85 221.80 136.85 222.00 134.00
C 221.70 135.32 221.73 140.62 221.00 142.00 Z"/>
</g>
<g fill="#91834F" fill-opacity="1.00" stroke="None"><path d="
M 246.00 141.00 
C 245.19 139.10 245.68 135.81 245.00 134.00
C 245.55 136.65 244.71 138.78 246.00 141.00 Z"/>
</g>
<g fill="#91834F" fill-opacity="1.00" stroke="None"><path d="
M 191.00 142.00 
C 189.28 140.85 185.33 136.73 184.00 135.00
C 185.62 137.48 188.35 140.49 191.00 142.00 Z"/>
</g>
<g fill="#91834F" fill-opacity="1.00" stroke="None"><path d="
M 207.00 142.00 
C 205.67 141.99 204.33 142.03 203.00 142.00
C 204.52 142.24 205.47 142.18 207.00 142.00 Z"/>
</g>
<g fill="#91834F" fill-opacity="1.00" stroke="None"><path d="
M 264.00 142.00 
C 262.34 142.06 260.66 142.03 259.00 142.00
C 260.78 142.23 262.14 142.28 264.00 142.00 Z"/>
</g>
<g fill="#91834F" fill-opacity="1.00" stroke="None"><path d="
M 209.00 146.00 
C 211.11 145.94 212.43 145.52 214.00 145.00
C 212.62 145.27 209.90 145.89 209.00 146.00 Z"/>
</g>
<g fill="#91834F" fill-opacity="1.00" stroke="None"><path d="
M 258.00 146.00 
C 257.13 145.89 254.39 145.27 253.00 145.00
C 254.59 145.53 255.82 145.94 258.00 146.00 Z"/>
</g>
<g fill="#000000" fill-opacity="0.40" stroke="None"><path d="
M 196.00 188.00 
C 194.78 186.78 193.26 185.26 192.00 184.00
C 192.76 185.17 194.72 187.17 196.00 188.00 Z"/>
</g>
</svg>